# xmcd CD database file
#
# Track frame offsets:
#	187
#	26065
#	46440
#	69257
#	84702
#	117917
#	145527
#	168260
#	198305
#	227390
#	248662
#
# Disc length: 3994 seconds
#
# Revision: 0
# Processed by: cddbd v1.5.1PL0 Copyright (c) Steve Scherf et al.
# Submitted via: CDex 1.51
#
DISCID=860f980b
DTITLE=Wes Montgomery - Movin' Along
DYEAR=1960
DGENRE=Jazz
TTITLE0=Movin' Along (Take 5)
TTITLE1=Tune-Up (Take 4)
TTITLE2=Ghost Of A Chance
TTITLE3=Sandu
TTITLE4=Body And Soul
TTITLE5=So Do It!
TTITLE6=Says You
TTITLE7=Movin' Along (Take 1)
TTITLE8=Movin' Along (Take 4)
TTITLE9=Tune-Up (Take 9)
TTITLE10=Body And Soul (Take 2)
EXTD=YEAR: 1960
EXTT0=
EXTT1=
EXTT2=
EXTT3=
EXTT4=
EXTT5=
EXTT6=
EXTT7=
EXTT8=
EXTT9=
EXTT10=
PLAYORDER=
